<svg width="750" height="341" viewBox="0 0 750 341" fill="none" xmlns="http://www.w3.org/2000/svg">
<g filter="url(#filter0_d_270_1609)">
<path fill-rule="evenodd" clip-rule="evenodd" d="M186.352 176.779V80.1577L150.424 44.2301H113.45V73.5303H84.1499V103.528H54.8498V138.758L92.8702 176.779H186.352ZM123.914 50.5087H146.238L175.887 80.1577H152.866L123.217 50.5087H123.914ZM150.424 83.6458V107.714L119.729 77.0184V52.6016L150.424 83.297V83.6458ZM94.2655 80.1577H116.589L146.238 109.807H123.217L93.5679 80.1577H94.2655ZM120.775 113.295V137.363L90.0797 106.667V82.2506L120.775 112.946V113.295ZM65.6629 109.807H87.9869L117.636 139.456H94.6143L65.3141 109.807H65.6629ZM92.1726 142.944V167.012L61.4772 136.316V111.9L92.1726 142.595V142.944ZM223.675 73.1814H208.676V147.827H223.675V118.039H250.184V147.827H265.532V73.1814H250.184V103.32H223.675V73.1814ZM276.694 73.1814V147.827H291.693V73.1814H276.694ZM370.093 88.1865C364.778 81.063 357.096 76.0697 348.429 74.1049C339.761 72.1401 330.677 73.3328 322.81 77.4684C314.944 81.6039 308.811 88.411 305.516 96.6649C302.22 104.919 301.978 114.078 304.833 122.494C307.688 130.911 313.453 138.032 321.09 142.577C328.728 147.122 337.736 148.793 346.495 147.289C355.255 145.784 363.189 141.204 368.873 134.371C372.403 130.126 374.92 125.186 376.293 119.922H376.296C376.574 119.077 376.803 117.91 376.985 116.689C377.231 115.222 377.391 113.737 377.46 112.241C377.477 112.006 377.49 111.791 377.501 111.6V105.97H341.922V119.922H360.764C359.938 121.728 358.871 123.431 357.583 124.98C354.135 129.125 349.323 131.903 344.01 132.816C338.697 133.728 333.233 132.715 328.6 129.958C323.968 127.201 320.471 122.882 318.74 117.777C317.008 112.672 317.155 107.116 319.153 102.11C321.152 97.1036 324.872 92.9749 329.644 90.4664C334.415 87.958 339.925 87.2346 345.182 88.4263C350.44 89.6181 355.099 92.6467 358.323 96.9675L370.093 88.1865ZM388.663 73.1814H403.662V103.32H430.171V73.1814H445.519V147.827H430.171V118.039H403.662V147.827H388.663V73.1814ZM467.843 75.8874C467.843 74.3462 469.092 73.0969 470.633 73.0969H488.772H507.607C509.149 73.0969 510.398 74.3462 510.398 75.8874C510.398 77.4285 509.149 78.6778 507.607 78.6778H491.562V145.121C491.562 146.663 490.313 147.912 488.772 147.912C487.231 147.912 485.981 146.663 485.981 145.121V78.6778H470.633C469.092 78.6778 467.843 77.4285 467.843 75.8874ZM521.56 107.893V78.6778H555.743C557.285 78.6778 558.534 77.4285 558.534 75.8873C558.534 74.3462 557.285 73.0969 555.743 73.0969H518.769C518.673 73.0969 518.578 73.1017 518.484 73.1113C517.077 73.2542 515.979 74.4425 515.979 75.8873V110.684V144.784V144.953C515.979 146.494 517.228 147.744 518.769 147.744C519.106 147.744 519.429 147.684 519.727 147.575H555.743C557.285 147.575 558.534 146.325 558.534 144.784C558.534 143.243 557.285 141.994 555.743 141.994H521.56V113.474H555.743C557.285 113.474 558.534 112.225 558.534 110.684C558.534 109.143 557.285 107.893 555.743 107.893H521.56ZM624.532 81.1C625.706 82.0244 625.778 83.7439 624.771 84.8475C623.764 85.951 622.06 86.019 620.875 85.1091C616.655 81.8683 611.679 79.7249 606.394 78.894C600.217 77.9227 593.89 78.7879 588.199 81.382C582.509 83.9762 577.706 88.1851 574.388 93.4857C571.07 98.7864 569.382 104.945 569.534 111.197C569.686 117.449 571.672 123.518 575.245 128.651C578.818 133.784 583.819 137.754 589.629 140.068C595.439 142.382 601.801 142.938 607.924 141.667C613.162 140.579 618.027 138.196 622.085 134.754C623.224 133.787 624.93 133.772 625.989 134.825C627.049 135.878 627.06 137.599 625.933 138.58C621.119 142.767 615.3 145.661 609.023 146.964C601.862 148.45 594.422 147.8 587.627 145.094C580.833 142.387 574.983 137.744 570.805 131.741C566.626 125.739 564.304 118.64 564.126 111.329C563.948 104.017 565.922 96.8143 569.803 90.6151C573.684 84.4159 579.3 79.4935 585.955 76.4596C592.61 73.4256 600.01 72.4138 607.235 73.5498C613.567 74.5454 619.52 77.1523 624.532 81.1ZM647.132 73.0969C648.673 73.0969 649.923 74.3462 649.923 75.8873V107.893H681.316V75.8873C681.316 74.3462 682.565 73.0969 684.106 73.0969C685.647 73.0969 686.897 74.3462 686.897 75.8873V110.672V110.684V110.695V144.953C686.897 146.494 685.647 147.744 684.106 147.744C682.565 147.744 681.316 146.494 681.316 144.953V113.474H649.923V144.953C649.923 146.494 648.673 147.744 647.132 147.744C645.591 147.744 644.342 146.494 644.342 144.953V110.684V75.8873C644.342 74.3462 645.591 73.0969 647.132 73.0969ZM135.311 212.134C128.587 204.05 119.555 198.212 109.423 195.401C99.2915 192.59 88.5428 192.939 78.6151 196.403C68.6873 199.867 60.054 206.279 53.8698 214.783C47.6857 223.287 44.2456 233.476 44.0098 243.988C43.774 254.5 46.7537 264.833 52.5504 273.606C58.347 282.378 66.6842 289.171 76.4466 293.077C86.209 296.982 96.9312 297.813 107.179 295.459C117.427 293.105 126.711 287.678 133.791 279.904L123.928 270.923C118.678 276.688 111.792 280.713 104.192 282.459C96.5927 284.205 88.641 283.588 81.4011 280.692C74.1612 277.796 67.9783 272.758 63.6794 266.252C59.3806 259.746 57.1708 252.083 57.3457 244.287C57.5205 236.491 60.0717 228.935 64.6579 222.628C69.2441 216.322 75.6467 211.566 83.0092 208.998C90.3717 206.429 98.343 206.17 105.857 208.254C113.371 210.339 120.069 214.669 125.055 220.664L135.311 212.134ZM176.545 222.124C176.545 230.215 169.986 236.774 161.895 236.774C153.804 236.774 147.245 230.215 147.245 222.124C147.245 214.033 153.804 207.474 161.895 207.474C169.986 207.474 176.545 214.033 176.545 222.124ZM151.425 222.124C151.425 227.907 156.113 232.594 161.895 232.594C167.678 232.594 172.365 227.907 172.365 222.124C172.365 216.342 167.678 211.654 161.895 211.654C156.113 211.654 151.425 216.342 151.425 222.124ZM184.917 207.474C184.362 207.474 183.829 207.695 183.437 208.087C183.044 208.48 182.824 209.012 182.824 209.567V234.681C182.824 235.837 183.761 236.774 184.917 236.774H196.428C198.72 236.774 202.08 236.043 204.915 233.816C207.844 231.515 210.031 227.756 210.031 222.124C210.031 216.493 207.844 212.733 204.915 210.433C202.08 208.206 198.72 207.474 196.428 207.474H184.917ZM187.01 232.589V211.66H196.428C197.972 211.66 200.368 212.184 202.329 213.724C204.196 215.191 205.846 217.71 205.846 222.124C205.846 226.539 204.196 229.058 202.329 230.524C200.368 232.064 197.972 232.589 196.428 232.589H187.01ZM216.31 209.567C216.31 208.411 217.247 207.474 218.402 207.474H224.681H230.96C232.115 207.474 233.053 208.411 233.053 209.567C233.053 210.723 232.115 211.66 230.96 211.66H226.774V232.588H230.96C232.115 232.588 233.053 233.525 233.053 234.681C233.053 235.837 232.115 236.774 230.96 236.774H224.687H224.681H224.675H218.402C217.247 236.774 216.31 235.837 216.31 234.681C216.31 233.525 217.247 232.588 218.402 232.588H222.588V211.66H218.402C217.247 211.66 216.31 210.723 216.31 209.567ZM267.236 209.567C267.236 208.411 266.299 207.474 265.144 207.474C263.988 207.474 263.051 208.411 263.051 209.567V229.044L245.112 208.211C245.096 208.193 245.08 208.175 245.064 208.158C244.869 207.943 244.639 207.778 244.39 207.664C244.14 207.549 243.864 207.482 243.573 207.475C243.463 207.472 243.352 207.477 243.242 207.492C243.085 207.513 242.933 207.551 242.788 207.604C242.535 207.698 242.305 207.84 242.109 208.019C241.894 208.214 241.728 208.445 241.614 208.694C241.5 208.944 241.433 209.22 241.425 209.511C241.424 209.534 241.424 209.557 241.424 209.58L241.424 234.681C241.424 235.837 242.361 236.774 243.517 236.774C244.673 236.774 245.61 235.837 245.61 234.681V215.205L263.557 236.047C263.944 236.496 264.481 236.741 265.03 236.771C265.174 236.779 265.319 236.772 265.462 236.75L265.494 236.745L265.501 236.744C265.935 236.669 266.323 236.461 266.621 236.163C266.775 236.01 266.901 235.838 266.998 235.653C267.15 235.363 267.236 235.032 267.236 234.681V209.567ZM300.637 211.785C301.451 212.602 301.251 213.923 300.327 214.612C299.403 215.302 298.106 215.092 297.247 214.322C295.884 213.101 294.215 212.25 292.4 211.871C289.899 211.348 287.292 211.758 285.072 213.023C282.852 214.288 281.171 216.321 280.345 218.74C279.519 221.158 279.606 223.795 280.589 226.154C281.572 228.513 283.384 230.431 285.683 231.547C287.981 232.663 290.609 232.9 293.071 232.214C295.532 231.528 297.658 229.966 299.048 227.821C299.766 226.713 300.262 225.49 300.522 224.217H293.049C291.893 224.217 290.956 223.28 290.956 222.124C290.956 220.968 291.893 220.031 293.049 220.031L302.118 220.031H302.74C303.125 220.07 303.545 220.183 303.913 220.407C304.084 220.511 304.244 220.638 304.384 220.793C304.692 221.096 304.89 221.505 304.907 221.978C304.94 222.229 304.943 222.509 304.908 222.822L304.889 222.988L304.874 223.127C304.705 225.591 303.914 227.991 302.552 230.092C300.608 233.091 297.634 235.277 294.192 236.236C290.749 237.196 287.074 236.864 283.859 235.303C280.644 233.742 278.11 231.059 276.735 227.76C275.36 224.461 275.239 220.773 276.394 217.391C277.548 214.008 279.9 211.165 283.005 209.395C286.11 207.626 289.755 207.053 293.254 207.784C296.067 208.371 298.63 209.77 300.637 211.785ZM371.207 198.928H363.882L342.256 245.32H349.581L371.207 198.928ZM335.773 207.395L321.821 220.998C321.282 221.523 320.978 222.244 320.978 222.996C320.978 223.749 321.282 224.469 321.821 224.994L335.773 238.598L339.669 234.602L327.766 222.996L339.669 211.391L335.773 207.395ZM377.341 207.395L391.293 220.998C391.832 221.523 392.136 222.244 392.136 222.996C392.136 223.749 391.832 224.469 391.293 224.994L377.341 238.598L373.445 234.602L385.348 222.996L373.445 211.391L377.341 207.395ZM149.338 261.365C150.494 261.365 151.431 262.303 151.431 263.458V274.404H166.778V263.458C166.778 262.303 167.715 261.365 168.871 261.365C170.027 261.365 170.964 262.303 170.964 263.458V288.998C170.964 290.154 170.027 291.091 168.871 291.091C167.715 291.091 166.778 290.154 166.778 288.998V278.59L151.431 278.59V288.998C151.431 290.154 150.494 291.091 149.338 291.091C148.182 291.091 147.245 290.154 147.245 288.998V263.458C147.245 262.303 148.182 261.365 149.338 261.365ZM179.522 288.483C179.04 289.533 179.526 290.713 180.609 291.118C181.691 291.523 182.96 291 183.442 289.95L186.985 282.24H200.237L203.779 289.95C204.262 291 205.53 291.523 206.613 291.118C207.696 290.713 208.182 289.533 207.699 288.483L195.84 262.671C195.445 261.812 194.525 261.306 193.611 261.371C192.697 261.306 191.776 261.812 191.382 262.671L179.522 288.483ZM198.314 278.054H188.908L193.611 267.819L198.314 278.054ZM220.444 263.458C220.444 262.303 219.507 261.365 218.351 261.365C217.195 261.365 216.258 262.303 216.258 263.458V288.998C216.258 289.01 216.258 289.023 216.258 289.035C216.259 289.067 216.26 289.099 216.262 289.13L216.26 289.155C216.26 289.171 216.259 289.186 216.258 289.202C216.258 289.224 216.257 289.247 216.257 289.27C216.257 290.426 217.194 291.363 218.35 291.363H232.303C233.459 291.363 234.396 290.426 234.396 289.27C234.396 288.115 233.459 287.178 232.303 287.178H220.444V263.458ZM244.86 261.365C246.016 261.365 246.953 262.303 246.953 263.458V287.178H258.812C259.968 287.178 260.905 288.115 260.905 289.27C260.905 290.426 259.968 291.363 258.812 291.363H244.86C243.704 291.363 242.767 290.426 242.767 289.27C242.767 289.246 242.768 289.223 242.768 289.199C242.769 289.192 242.769 289.186 242.769 289.18C242.769 289.172 242.77 289.165 242.77 289.157L242.772 289.133C242.769 289.088 242.767 289.043 242.767 288.998V263.458C242.767 262.303 243.704 261.365 244.86 261.365ZM285.322 265.551C286.478 265.551 287.415 264.614 287.415 263.458C287.415 262.303 286.478 261.365 285.322 261.365H271.37C270.214 261.365 269.277 262.303 269.277 263.458L269.277 263.481V275.993L269.277 276.016L269.277 276.038V288.998C269.277 289.011 269.277 289.024 269.277 289.037C269.277 289.047 269.278 289.056 269.278 289.066C269.279 289.088 269.28 289.111 269.281 289.133C269.28 289.151 269.279 289.169 269.278 289.188C269.277 289.215 269.277 289.243 269.277 289.27C269.277 290.426 270.214 291.363 271.37 291.363H285.322C286.478 291.363 287.415 290.426 287.415 289.27C287.415 288.115 286.478 287.178 285.322 287.178H273.463V278.108H285.322C286.478 278.108 287.415 277.171 287.415 276.016C287.415 274.86 286.478 273.923 285.322 273.923H273.463V265.551H285.322ZM296.735 261.706C296.641 261.767 296.553 261.835 296.471 261.91C296.256 262.106 296.091 262.336 295.977 262.586C295.862 262.835 295.795 263.112 295.787 263.402L295.787 263.435C295.786 263.447 295.786 263.459 295.787 263.472V288.573C295.787 289.729 296.724 290.666 297.879 290.666C299.035 290.666 299.972 289.729 299.972 288.573V269.096L317.907 289.923C317.92 289.939 317.934 289.955 317.948 289.97C317.963 289.988 317.979 290.005 317.995 290.022C318.176 290.211 318.385 290.359 318.61 290.465C318.983 290.641 319.399 290.702 319.803 290.645C319.926 290.627 320.046 290.599 320.162 290.561C320.415 290.477 320.657 290.344 320.871 290.159C321.121 289.944 321.307 289.684 321.428 289.4C321.522 289.184 321.58 288.949 321.595 288.702C321.595 288.689 321.596 288.675 321.597 288.661C321.597 288.652 321.597 288.643 321.598 288.633C321.598 288.61 321.599 288.586 321.599 288.562L321.599 288.551V263.458C321.599 262.303 320.661 261.366 319.506 261.366C318.35 261.366 317.413 262.303 317.413 263.458V282.935L299.474 262.103C299.465 262.092 299.455 262.081 299.446 262.071C299.44 262.063 299.433 262.056 299.427 262.049C299.232 261.835 299.001 261.67 298.752 261.556C298.502 261.441 298.226 261.374 297.935 261.366C297.671 261.359 297.404 261.402 297.151 261.496C297.007 261.549 296.867 261.619 296.735 261.706ZM354.999 265.676C355.813 266.493 355.613 267.814 354.689 268.504C353.765 269.193 352.469 268.983 351.61 268.214C350.247 266.993 348.578 266.141 346.762 265.762C344.261 265.24 341.655 265.649 339.434 266.915C337.214 268.18 335.533 270.213 334.707 272.631C333.882 275.05 333.969 277.686 334.952 280.045C335.935 282.404 337.746 284.322 340.045 285.438C342.344 286.555 344.971 286.792 347.433 286.106C349.894 285.42 352.02 283.857 353.41 281.713C354.128 280.605 354.624 279.381 354.884 278.108H347.411C346.255 278.108 345.318 277.171 345.318 276.016C345.318 274.86 346.255 273.923 347.411 273.923L356.48 273.923H357.102C357.487 273.962 357.907 274.075 358.275 274.299C358.446 274.402 358.605 274.529 358.745 274.684C359.054 274.987 359.253 275.396 359.269 275.871C359.302 276.121 359.305 276.401 359.27 276.713C359.259 276.817 359.247 276.918 359.236 277.016C359.068 279.481 358.277 281.881 356.914 283.984C354.97 286.983 351.997 289.168 348.554 290.128C345.111 291.087 341.436 290.755 338.221 289.194C335.006 287.633 332.473 284.951 331.098 281.652C329.723 278.352 329.601 274.665 330.756 271.282C331.911 267.9 334.262 265.056 337.367 263.287C340.473 261.517 344.118 260.944 347.616 261.675C350.43 262.263 352.992 263.661 354.999 265.676ZM385.805 263.458C385.805 264.614 384.868 265.551 383.712 265.551H371.852V273.923H383.712C384.868 273.923 385.805 274.86 385.805 276.016C385.805 277.171 384.868 278.108 383.712 278.108H371.852V287.178H383.712C384.868 287.178 385.805 288.115 385.805 289.27C385.805 290.426 384.868 291.363 383.712 291.363H369.76C368.604 291.363 367.667 290.426 367.667 289.27C367.667 289.225 367.668 289.18 367.671 289.135C367.67 289.116 367.669 289.098 367.668 289.079C367.667 289.052 367.667 289.025 367.667 288.998V263.458C367.667 262.319 368.576 261.393 369.709 261.366C369.726 261.366 369.743 261.365 369.76 261.365H383.712C384.868 261.365 385.805 262.303 385.805 263.458ZM413.808 287.289V276.932L446.905 245.501C449.683 242.882 451.747 240.58 453.096 238.596C454.445 236.612 455.318 234.786 455.715 233.119C456.192 231.373 456.43 229.746 456.43 228.238C456.43 224.428 455.12 221.492 452.501 219.428C449.882 217.285 446.032 216.214 440.953 216.214C436.905 216.214 433.214 216.928 429.88 218.357C426.626 219.785 423.809 221.968 421.428 224.905L410.594 216.571C413.848 212.205 418.213 208.832 423.69 206.451C429.245 203.991 435.436 202.76 442.262 202.76C448.294 202.76 453.533 203.753 457.977 205.737C462.501 207.642 465.954 210.38 468.335 213.952C470.796 217.523 472.026 221.77 472.026 226.69C472.026 229.389 471.669 232.088 470.954 234.786C470.24 237.405 468.891 240.183 466.906 243.12C464.922 246.057 462.025 249.351 458.215 253.002L435.903 274.193H475.24V287.289H413.808ZM518.937 288.48C512.349 288.48 506.397 286.813 501.079 283.48C495.841 280.146 491.713 275.305 488.697 268.955C485.681 262.526 484.173 254.748 484.173 245.62C484.173 236.493 485.681 228.754 488.697 222.404C491.713 215.976 495.841 211.094 501.079 207.761C506.397 204.427 512.349 202.76 518.937 202.76C525.604 202.76 531.557 204.427 536.795 207.761C542.034 211.094 546.161 215.976 549.177 222.404C552.273 228.754 553.82 236.493 553.82 245.62C553.82 254.748 552.273 262.526 549.177 268.955C546.161 275.305 542.034 280.146 536.795 283.48C531.557 286.813 525.604 288.48 518.937 288.48ZM518.937 275.027C522.826 275.027 526.2 273.995 529.057 271.931C531.914 269.788 534.137 266.534 535.724 262.169C537.391 257.803 538.224 252.287 538.224 245.62C538.224 238.874 537.391 233.358 535.724 229.072C534.137 224.706 531.914 221.492 529.057 219.428C526.2 217.285 522.826 216.214 518.937 216.214C515.207 216.214 511.873 217.285 508.937 219.428C506.079 221.492 503.817 224.706 502.15 229.072C500.563 233.358 499.769 238.874 499.769 245.62C499.769 252.287 500.563 257.803 502.15 262.169C503.817 266.534 506.079 269.788 508.937 271.931C511.873 273.995 515.207 275.027 518.937 275.027ZM563.092 287.289V276.932L596.189 245.501C598.967 242.882 601.03 240.58 602.38 238.596C603.729 236.612 604.602 234.786 604.999 233.119C605.475 231.373 605.713 229.746 605.713 228.238C605.713 224.428 604.404 221.492 601.784 219.428C599.165 217.285 595.316 216.214 590.236 216.214C586.188 216.214 582.498 216.928 579.164 218.357C575.91 219.785 573.092 221.968 570.711 224.905L559.877 216.571C563.131 212.205 567.497 208.832 572.973 206.451C578.529 203.991 584.72 202.76 591.546 202.76C597.578 202.76 602.816 203.753 607.261 205.737C611.785 207.642 615.238 210.38 617.619 213.952C620.079 217.523 621.31 221.77 621.31 226.69C621.31 229.389 620.952 232.088 620.238 234.786C619.524 237.405 618.174 240.183 616.19 243.12C614.206 246.057 611.309 249.351 607.499 253.002L585.187 274.193H624.524V287.289H563.092ZM630.522 268.36V257.645L671.596 203.951H688.145L649.461 255.264H676.716V238.477H691.24V255.264H706.003V268.36H691.24V287.289H676.239V268.36H630.522Z" fill="url(#paint0_linear_270_1609)"/>
</g>
<defs>
<filter id="filter0_d_270_1609" x="-0.00317383" y="0.230103" width="750.006" height="340.54" filterUnits="userSpaceOnUse" color-interpolation-filters="sRGB">
<feFlood flood-opacity="0" result="BackgroundImageFix"/>
<feColorMatrix in="SourceAlpha" type="matrix" values="0 0 0 0 0 0 0 0 0 0 0 0 0 0 0 0 0 0 127 0" result="hardAlpha"/>
<feOffset/>
<feGaussianBlur stdDeviation="22"/>
<feComposite in2="hardAlpha" operator="out"/>
<feColorMatrix type="matrix" values="0 0 0 0 0 0 0 0 0 0 0 0 0 0 0 0 0 0 0.32 0"/>
<feBlend mode="normal" in2="BackgroundImageFix" result="effect1_dropShadow_270_1609"/>
<feBlend mode="normal" in="SourceGraphic" in2="effect1_dropShadow_270_1609" result="shape"/>
</filter>
<linearGradient id="paint0_linear_270_1609" x1="60.2424" y1="296.77" x2="142.159" y2="-22.633" gradientUnits="userSpaceOnUse">
<stop stop-color="#F63E3E"/>
<stop offset="1" stop-color="#F8AB48"/>
</linearGradient>
</defs>
</svg>
